0
SECTION
2
HEADER
9
$INSUNITS
70
4
0
ENDSEC
0
SECTION
2
TABLES
0
TABLE
2
LTYPE
0
LTYPE
72
65
70
64
2
CONTINUOUS
3
______
73
0
40
0
0
ENDTAB
0
TABLE
2
LAYER
0
ENDTAB
0
ENDSEC
0
SECTION
2
ENTITIES
0
LINE
8
0
10
-7.5
20
-7.5
11
7.5
21
-7.5
0
LINE
8
0
10
7.5
20
-7.5
11
7.5
21
7.5
0
LINE
8
0
10
7.5
20
7.5
11
-7.5
21
7.5
0
LINE
8
0
10
-7.5
20
7.5
11
-7.5
21
-7.5
0
LINE
8
0
10
12.45
20
-7.5
11
27.45
21
-7.5
0
LINE
8
0
10
27.45
20
-7.5
11
27.45
21
7.5
0
LINE
8
0
10
27.45
20
7.5
11
12.45
21
7.5
0
LINE
8
0
10
12.45
20
7.5
11
12.45
21
-7.5
0
LINE
8
0
10
31.45
20
-7.5
11
46.45
21
-7.5
0
LINE
8
0
10
46.45
20
-7.5
11
46.45
21
7.5
0
LINE
8
0
10
46.45
20
7.5
11
31.45
21
7.5
0
LINE
8
0
10
31.45
20
7.5
11
31.45
21
-7.5
0
LINE
8
0
10
50.45
20
-7.5
11
65.45
21
-7.5
0
LINE
8
0
10
65.45
20
-7.5
11
65.45
21
7.5
0
LINE
8
0
10
65.45
20
7.5
11
50.45
21
7.5
0
LINE
8
0
10
50.45
20
7.5
11
50.45
21
-7.5
0
LINE
8
0
10
69.45
20
-7.5
11
84.45
21
-7.5
0
LINE
8
0
10
84.45
20
-7.5
11
84.45
21
7.5
0
LINE
8
0
10
84.45
20
7.5
11
69.45
21
7.5
0
LINE
8
0
10
69.45
20
7.5
11
69.45
21
-7.5
0
LINE
8
0
10
88.45
20
-7.5
11
103.45
21
-7.5
0
LINE
8
0
10
103.45
20
-7.5
11
103.45
21
7.5
0
LINE
8
0
10
103.45
20
7.5
11
88.45
21
7.5
0
LINE
8
0
10
88.45
20
7.5
11
88.45
21
-7.5
0
LINE
8
0
10
107.45
20
-7.5
11
122.45
21
-7.5
0
LINE
8
0
10
122.45
20
-7.5
11
122.45
21
7.5
0
LINE
8
0
10
122.45
20
7.5
11
107.45
21
7.5
0
LINE
8
0
10
107.45
20
7.5
11
107.45
21
-7.5
0
LINE
8
0
10
126.45
20
-7.5
11
141.45
21
-7.5
0
LINE
8
0
10
141.45
20
-7.5
11
141.45
21
7.5
0
LINE
8
0
10
141.45
20
7.5
11
126.45
21
7.5
0
LINE
8
0
10
126.45
20
7.5
11
126.45
21
-7.5
0
LINE
8
0
10
145.45
20
-7.5
11
160.45
21
-7.5
0
LINE
8
0
10
160.45
20
-7.5
11
160.45
21
7.5
0
LINE
8
0
10
160.45
20
7.5
11
145.45
21
7.5
0
LINE
8
0
10
145.45
20
7.5
11
145.45
21
-7.5
0
LINE
8
0
10
164.45
20
-7.5
11
179.45
21
-7.5
0
LINE
8
0
10
179.45
20
-7.5
11
179.45
21
7.5
0
LINE
8
0
10
179.45
20
7.5
11
164.45
21
7.5
0
LINE
8
0
10
164.45
20
7.5
11
164.45
21
-7.5
0
LINE
8
0
10
183.45
20
-7.5
11
198.45
21
-7.5
0
LINE
8
0
10
198.45
20
-7.5
11
198.45
21
7.5
0
LINE
8
0
10
198.45
20
7.5
11
183.45
21
7.5
0
LINE
8
0
10
183.45
20
7.5
11
183.45
21
-7.5
0
LINE
8
0
10
202.45
20
-7.5
11
217.45
21
-7.5
0
LINE
8
0
10
217.45
20
-7.5
11
217.45
21
7.5
0
LINE
8
0
10
217.45
20
7.5
11
202.45
21
7.5
0
LINE
8
0
10
202.45
20
7.5
11
202.45
21
-7.5
0
LINE
8
0
10
221.45
20
-7.5
11
236.45
21
-7.5
0
LINE
8
0
10
236.45
20
-7.5
11
236.45
21
7.5
0
LINE
8
0
10
236.45
20
7.5
11
221.45
21
7.5
0
LINE
8
0
10
221.45
20
7.5
11
221.45
21
-7.5
0
LINE
8
0
10
250.425
20
-7.5
11
265.425
21
-7.5
0
LINE
8
0
10
265.425
20
-7.5
11
265.425
21
7.5
0
LINE
8
0
10
265.425
20
7.5
11
250.425
21
7.5
0
LINE
8
0
10
250.425
20
7.5
11
250.425
21
-7.5
0
LINE
8
0
10
-7.5
20
11.55
11
7.5
21
11.55
0
LINE
8
0
10
7.5
20
11.55
11
7.5
21
26.55
0
LINE
8
0
10
7.5
20
26.55
11
-7.5
21
26.55
0
LINE
8
0
10
-7.5
20
26.55
11
-7.5
21
11.55
0
LINE
8
0
10
16.725
20
11.55
11
31.725
21
11.55
0
LINE
8
0
10
31.725
20
11.55
11
31.725
21
26.55
0
LINE
8
0
10
31.725
20
26.55
11
16.725
21
26.55
0
LINE
8
0
10
16.725
20
26.55
11
16.725
21
11.55
0
LINE
8
0
10
35.725
20
11.55
11
50.725
21
11.55
0
LINE
8
0
10
50.725
20
11.55
11
50.725
21
26.55
0
LINE
8
0
10
50.725
20
26.55
11
35.725
21
26.55
0
LINE
8
0
10
35.725
20
26.55
11
35.725
21
11.55
0
LINE
8
0
10
54.725
20
11.55
11
69.725
21
11.55
0
LINE
8
0
10
69.725
20
11.55
11
69.725
21
26.55
0
LINE
8
0
10
69.725
20
26.55
11
54.725
21
26.55
0
LINE
8
0
10
54.725
20
26.55
11
54.725
21
11.55
0
LINE
8
0
10
73.725
20
11.55
11
88.725
21
11.55
0
LINE
8
0
10
88.725
20
11.55
11
88.725
21
26.55
0
LINE
8
0
10
88.725
20
26.55
11
73.725
21
26.55
0
LINE
8
0
10
73.725
20
26.55
11
73.725
21
11.55
0
LINE
8
0
10
97.95
20
11.55
11
112.95
21
11.55
0
LINE
8
0
10
112.95
20
11.55
11
112.95
21
26.55
0
LINE
8
0
10
112.95
20
26.55
11
97.95
21
26.55
0
LINE
8
0
10
97.95
20
26.55
11
97.95
21
11.55
0
LINE
8
0
10
116.95
20
11.55
11
131.95
21
11.55
0
LINE
8
0
10
131.95
20
11.55
11
131.95
21
26.55
0
LINE
8
0
10
131.95
20
26.55
11
116.95
21
26.55
0
LINE
8
0
10
116.95
20
26.55
11
116.95
21
11.55
0
LINE
8
0
10
135.95
20
11.55
11
150.95
21
11.55
0
LINE
8
0
10
150.95
20
11.55
11
150.95
21
26.55
0
LINE
8
0
10
150.95
20
26.55
11
135.95
21
26.55
0
LINE
8
0
10
135.95
20
26.55
11
135.95
21
11.55
0
LINE
8
0
10
154.95
20
11.55
11
169.95
21
11.55
0
LINE
8
0
10
169.95
20
11.55
11
169.95
21
26.55
0
LINE
8
0
10
169.95
20
26.55
11
154.95
21
26.55
0
LINE
8
0
10
154.95
20
26.55
11
154.95
21
11.55
0
LINE
8
0
10
179.175
20
11.55
11
194.175
21
11.55
0
LINE
8
0
10
194.175
20
11.55
11
194.175
21
26.55
0
LINE
8
0
10
194.175
20
26.55
11
179.175
21
26.55
0
LINE
8
0
10
179.175
20
26.55
11
179.175
21
11.55
0
LINE
8
0
10
198.175
20
11.55
11
213.175
21
11.55
0
LINE
8
0
10
213.175
20
11.55
11
213.175
21
26.55
0
LINE
8
0
10
213.175
20
26.55
11
198.175
21
26.55
0
LINE
8
0
10
198.175
20
26.55
11
198.175
21
11.55
0
LINE
8
0
10
217.175
20
11.55
11
232.175
21
11.55
0
LINE
8
0
10
232.175
20
11.55
11
232.175
21
26.55
0
LINE
8
0
10
232.175
20
26.55
11
217.175
21
26.55
0
LINE
8
0
10
217.175
20
26.55
11
217.175
21
11.55
0
LINE
8
0
10
236.175
20
11.55
11
251.175
21
11.55
0
LINE
8
0
10
251.175
20
11.55
11
251.175
21
26.55
0
LINE
8
0
10
251.175
20
26.55
11
236.175
21
26.55
0
LINE
8
0
10
236.175
20
26.55
11
236.175
21
11.55
0
LINE
8
0
10
260.4
20
11.55
11
275.4
21
11.55
0
LINE
8
0
10
275.4
20
11.55
11
275.4
21
26.55
0
LINE
8
0
10
275.4
20
26.55
11
260.4
21
26.55
0
LINE
8
0
10
260.4
20
26.55
11
260.4
21
11.55
0
LINE
8
0
10
-2.275
20
-26.55
11
12.725
21
-26.55
0
LINE
8
0
10
12.725
20
-26.55
11
12.725
21
-11.55
0
LINE
8
0
10
12.725
20
-11.55
11
-2.275
21
-11.55
0
LINE
8
0
10
-2.275
20
-11.55
11
-2.275
21
-26.55
0
LINE
8
0
10
21.95
20
-26.55
11
36.95
21
-26.55
0
LINE
8
0
10
36.95
20
-26.55
11
36.95
21
-11.55
0
LINE
8
0
10
36.95
20
-11.55
11
21.95
21
-11.55
0
LINE
8
0
10
21.95
20
-11.55
11
21.95
21
-26.55
0
LINE
8
0
10
40.95
20
-26.55
11
55.95
21
-26.55
0
LINE
8
0
10
55.95
20
-26.55
11
55.95
21
-11.55
0
LINE
8
0
10
55.95
20
-11.55
11
40.95
21
-11.55
0
LINE
8
0
10
40.95
20
-11.55
11
40.95
21
-26.55
0
LINE
8
0
10
59.95
20
-26.55
11
74.95
21
-26.55
0
LINE
8
0
10
74.95
20
-26.55
11
74.95
21
-11.55
0
LINE
8
0
10
74.95
20
-11.55
11
59.95
21
-11.55
0
LINE
8
0
10
59.95
20
-11.55
11
59.95
21
-26.55
0
LINE
8
0
10
78.95
20
-26.55
11
93.95
21
-26.55
0
LINE
8
0
10
93.95
20
-26.55
11
93.95
21
-11.55
0
LINE
8
0
10
93.95
20
-11.55
11
78.95
21
-11.55
0
LINE
8
0
10
78.95
20
-11.55
11
78.95
21
-26.55
0
LINE
8
0
10
97.95
20
-26.55
11
112.95
21
-26.55
0
LINE
8
0
10
112.95
20
-26.55
11
112.95
21
-11.55
0
LINE
8
0
10
112.95
20
-11.55
11
97.95
21
-11.55
0
LINE
8
0
10
97.95
20
-11.55
11
97.95
21
-26.55
0
LINE
8
0
10
116.95
20
-26.55
11
131.95
21
-26.55
0
LINE
8
0
10
131.95
20
-26.55
11
131.95
21
-11.55
0
LINE
8
0
10
131.95
20
-11.55
11
116.95
21
-11.55
0
LINE
8
0
10
116.95
20
-11.55
11
116.95
21
-26.55
0
LINE
8
0
10
135.95
20
-26.55
11
150.95
21
-26.55
0
LINE
8
0
10
150.95
20
-26.55
11
150.95
21
-11.55
0
LINE
8
0
10
150.95
20
-11.55
11
135.95
21
-11.55
0
LINE
8
0
10
135.95
20
-11.55
11
135.95
21
-26.55
0
LINE
8
0
10
154.95
20
-26.55
11
169.95
21
-26.55
0
LINE
8
0
10
169.95
20
-26.55
11
169.95
21
-11.55
0
LINE
8
0
10
169.95
20
-11.55
11
154.95
21
-11.55
0
LINE
8
0
10
154.95
20
-11.55
11
154.95
21
-26.55
0
LINE
8
0
10
173.95
20
-26.55
11
188.95
21
-26.55
0
LINE
8
0
10
188.95
20
-26.55
11
188.95
21
-11.55
0
LINE
8
0
10
188.95
20
-11.55
11
173.95
21
-11.55
0
LINE
8
0
10
173.95
20
-11.55
11
173.95
21
-26.55
0
LINE
8
0
10
192.95
20
-26.55
11
207.95
21
-26.55
0
LINE
8
0
10
207.95
20
-26.55
11
207.95
21
-11.55
0
LINE
8
0
10
207.95
20
-11.55
11
192.95
21
-11.55
0
LINE
8
0
10
192.95
20
-11.55
11
192.95
21
-26.55
0
LINE
8
0
10
211.95
20
-26.55
11
226.95
21
-26.55
0
LINE
8
0
10
226.95
20
-26.55
11
226.95
21
-11.55
0
LINE
8
0
10
226.95
20
-11.55
11
211.95
21
-11.55
0
LINE
8
0
10
211.95
20
-11.55
11
211.95
21
-26.55
0
LINE
8
0
10
230.95
20
-26.55
11
245.95
21
-26.55
0
LINE
8
0
10
245.95
20
-26.55
11
245.95
21
-11.55
0
LINE
8
0
10
245.95
20
-11.55
11
230.95
21
-11.55
0
LINE
8
0
10
230.95
20
-11.55
11
230.95
21
-26.55
0
LINE
8
0
10
255.175
20
-26.55
11
270.175
21
-26.55
0
LINE
8
0
10
270.175
20
-26.55
11
270.175
21
-11.55
0
LINE
8
0
10
270.175
20
-11.55
11
255.175
21
-11.55
0
LINE
8
0
10
255.175
20
-11.55
11
255.175
21
-26.55
0
LINE
8
0
10
0.1
20
-45.6
11
15.1
21
-45.6
0
LINE
8
0
10
15.1
20
-45.6
11
15.1
21
-30.6
0
LINE
8
0
10
15.1
20
-30.6
11
0.1
21
-30.6
0
LINE
8
0
10
0.1
20
-30.6
11
0.1
21
-45.6
0
LINE
8
0
10
26.7
20
-45.6
11
41.7
21
-45.6
0
LINE
8
0
10
41.7
20
-45.6
11
41.7
21
-30.6
0
LINE
8
0
10
41.7
20
-30.6
11
26.7
21
-30.6
0
LINE
8
0
10
26.7
20
-30.6
11
26.7
21
-45.6
0
LINE
8
0
10
45.7
20
-45.6
11
60.7
21
-45.6
0
LINE
8
0
10
60.7
20
-45.6
11
60.7
21
-30.6
0
LINE
8
0
10
60.7
20
-30.6
11
45.7
21
-30.6
0
LINE
8
0
10
45.7
20
-30.6
11
45.7
21
-45.6
0
LINE
8
0
10
64.7
20
-45.6
11
79.7
21
-45.6
0
LINE
8
0
10
79.7
20
-45.6
11
79.7
21
-30.6
0
LINE
8
0
10
79.7
20
-30.6
11
64.7
21
-30.6
0
LINE
8
0
10
64.7
20
-30.6
11
64.7
21
-45.6
0
LINE
8
0
10
83.7
20
-45.6
11
98.7
21
-45.6
0
LINE
8
0
10
98.7
20
-45.6
11
98.7
21
-30.6
0
LINE
8
0
10
98.7
20
-30.6
11
83.7
21
-30.6
0
LINE
8
0
10
83.7
20
-30.6
11
83.7
21
-45.6
0
LINE
8
0
10
102.7
20
-45.6
11
117.7
21
-45.6
0
LINE
8
0
10
117.7
20
-45.6
11
117.7
21
-30.6
0
LINE
8
0
10
117.7
20
-30.6
11
102.7
21
-30.6
0
LINE
8
0
10
102.7
20
-30.6
11
102.7
21
-45.6
0
LINE
8
0
10
121.7
20
-45.6
11
136.7
21
-45.6
0
LINE
8
0
10
136.7
20
-45.6
11
136.7
21
-30.6
0
LINE
8
0
10
136.7
20
-30.6
11
121.7
21
-30.6
0
LINE
8
0
10
121.7
20
-30.6
11
121.7
21
-45.6
0
LINE
8
0
10
140.7
20
-45.6
11
155.7
21
-45.6
0
LINE
8
0
10
155.7
20
-45.6
11
155.7
21
-30.6
0
LINE
8
0
10
155.7
20
-30.6
11
140.7
21
-30.6
0
LINE
8
0
10
140.7
20
-30.6
11
140.7
21
-45.6
0
LINE
8
0
10
159.7
20
-45.6
11
174.7
21
-45.6
0
LINE
8
0
10
174.7
20
-45.6
11
174.7
21
-30.6
0
LINE
8
0
10
174.7
20
-30.6
11
159.7
21
-30.6
0
LINE
8
0
10
159.7
20
-30.6
11
159.7
21
-45.6
0
LINE
8
0
10
178.7
20
-45.6
11
193.7
21
-45.6
0
LINE
8
0
10
193.7
20
-45.6
11
193.7
21
-30.6
0
LINE
8
0
10
193.7
20
-30.6
11
178.7
21
-30.6
0
LINE
8
0
10
178.7
20
-30.6
11
178.7
21
-45.6
0
LINE
8
0
10
197.7
20
-45.6
11
212.7
21
-45.6
0
LINE
8
0
10
212.7
20
-45.6
11
212.7
21
-30.6
0
LINE
8
0
10
212.7
20
-30.6
11
197.7
21
-30.6
0
LINE
8
0
10
197.7
20
-30.6
11
197.7
21
-45.6
0
LINE
8
0
10
216.7
20
-45.6
11
231.7
21
-45.6
0
LINE
8
0
10
231.7
20
-45.6
11
231.7
21
-30.6
0
LINE
8
0
10
231.7
20
-30.6
11
216.7
21
-30.6
0
LINE
8
0
10
216.7
20
-30.6
11
216.7
21
-45.6
0
LINE
8
0
10
248.05
20
-45.6
11
263.05
21
-45.6
0
LINE
8
0
10
263.05
20
-45.6
11
263.05
21
-30.6
0
LINE
8
0
10
263.05
20
-30.6
11
248.05
21
-30.6
0
LINE
8
0
10
248.05
20
-30.6
11
248.05
21
-45.6
0
LINE
8
0
10
279.4
20
-45.6
11
294.4
21
-45.6
0
LINE
8
0
10
294.4
20
-45.6
11
294.4
21
-30.6
0
LINE
8
0
10
294.4
20
-30.6
11
279.4
21
-30.6
0
LINE
8
0
10
279.4
20
-30.6
11
279.4
21
-45.6
0
LINE
8
0
10
298.4
20
-45.6
11
313.4
21
-45.6
0
LINE
8
0
10
313.4
20
-45.6
11
313.4
21
-30.6
0
LINE
8
0
10
313.4
20
-30.6
11
298.4
21
-30.6
0
LINE
8
0
10
298.4
20
-30.6
11
298.4
21
-45.6
0
LINE
8
0
10
4.85
20
-64.65
11
19.85
21
-64.65
0
LINE
8
0
10
19.85
20
-64.65
11
19.85
21
-49.65
0
LINE
8
0
10
19.85
20
-49.65
11
4.85
21
-49.65
0
LINE
8
0
10
4.85
20
-49.65
11
4.85
21
-64.65
0
LINE
8
0
10
36.2
20
-64.65
11
51.2
21
-64.65
0
LINE
8
0
10
51.2
20
-64.65
11
51.2
21
-49.65
0
LINE
8
0
10
51.2
20
-49.65
11
36.2
21
-49.65
0
LINE
8
0
10
36.2
20
-49.65
11
36.2
21
-64.65
0
LINE
8
0
10
55.2
20
-64.65
11
70.2
21
-64.65
0
LINE
8
0
10
70.2
20
-64.65
11
70.2
21
-49.65
0
LINE
8
0
10
70.2
20
-49.65
11
55.2
21
-49.65
0
LINE
8
0
10
55.2
20
-49.65
11
55.2
21
-64.65
0
LINE
8
0
10
74.2
20
-64.65
11
89.2
21
-64.65
0
LINE
8
0
10
89.2
20
-64.65
11
89.2
21
-49.65
0
LINE
8
0
10
89.2
20
-49.65
11
74.2
21
-49.65
0
LINE
8
0
10
74.2
20
-49.65
11
74.2
21
-64.65
0
LINE
8
0
10
93.2
20
-64.65
11
108.2
21
-64.65
0
LINE
8
0
10
108.2
20
-64.65
11
108.2
21
-49.65
0
LINE
8
0
10
108.2
20
-49.65
11
93.2
21
-49.65
0
LINE
8
0
10
93.2
20
-49.65
11
93.2
21
-64.65
0
LINE
8
0
10
112.2
20
-64.65
11
127.2
21
-64.65
0
LINE
8
0
10
127.2
20
-64.65
11
127.2
21
-49.65
0
LINE
8
0
10
127.2
20
-49.65
11
112.2
21
-49.65
0
LINE
8
0
10
112.2
20
-49.65
11
112.2
21
-64.65
0
LINE
8
0
10
131.2
20
-64.65
11
146.2
21
-64.65
0
LINE
8
0
10
146.2
20
-64.65
11
146.2
21
-49.65
0
LINE
8
0
10
146.2
20
-49.65
11
131.2
21
-49.65
0
LINE
8
0
10
131.2
20
-49.65
11
131.2
21
-64.65
0
LINE
8
0
10
150.2
20
-64.65
11
165.2
21
-64.65
0
LINE
8
0
10
165.2
20
-64.65
11
165.2
21
-49.65
0
LINE
8
0
10
165.2
20
-49.65
11
150.2
21
-49.65
0
LINE
8
0
10
150.2
20
-49.65
11
150.2
21
-64.65
0
LINE
8
0
10
169.2
20
-64.65
11
184.2
21
-64.65
0
LINE
8
0
10
184.2
20
-64.65
11
184.2
21
-49.65
0
LINE
8
0
10
184.2
20
-49.65
11
169.2
21
-49.65
0
LINE
8
0
10
169.2
20
-49.65
11
169.2
21
-64.65
0
LINE
8
0
10
188.2
20
-64.65
11
203.2
21
-64.65
0
LINE
8
0
10
203.2
20
-64.65
11
203.2
21
-49.65
0
LINE
8
0
10
203.2
20
-49.65
11
188.2
21
-49.65
0
LINE
8
0
10
188.2
20
-49.65
11
188.2
21
-64.65
0
LINE
8
0
10
207.2
20
-64.65
11
222.2
21
-64.65
0
LINE
8
0
10
222.2
20
-64.65
11
222.2
21
-49.65
0
LINE
8
0
10
222.2
20
-49.65
11
207.2
21
-49.65
0
LINE
8
0
10
207.2
20
-49.65
11
207.2
21
-64.65
0
LINE
8
0
10
243.3
20
-64.65
11
258.3
21
-64.65
0
LINE
8
0
10
258.3
20
-64.65
11
258.3
21
-49.65
0
LINE
8
0
10
258.3
20
-49.65
11
243.3
21
-49.65
0
LINE
8
0
10
243.3
20
-49.65
11
243.3
21
-64.65
0
LINE
8
0
10
279.4
20
-64.65
11
294.4
21
-64.65
0
LINE
8
0
10
294.4
20
-64.65
11
294.4
21
-49.65
0
LINE
8
0
10
294.4
20
-49.65
11
279.4
21
-49.65
0
LINE
8
0
10
279.4
20
-49.65
11
279.4
21
-64.65
0
LINE
8
0
10
-2.275
20
-83.7
11
12.725
21
-83.7
0
LINE
8
0
10
12.725
20
-83.7
11
12.725
21
-68.7
0
LINE
8
0
10
12.725
20
-68.7
11
-2.275
21
-68.7
0
LINE
8
0
10
-2.275
20
-68.7
11
-2.275
21
-83.7
0
LINE
8
0
10
21.95
20
-83.7
11
36.95
21
-83.7
0
LINE
8
0
10
36.95
20
-83.7
11
36.95
21
-68.7
0
LINE
8
0
10
36.95
20
-68.7
11
21.95
21
-68.7
0
LINE
8
0
10
21.95
20
-68.7
11
21.95
21
-83.7
0
LINE
8
0
10
40.95
20
-83.7
11
55.95
21
-83.7
0
LINE
8
0
10
55.95
20
-83.7
11
55.95
21
-68.7
0
LINE
8
0
10
55.95
20
-68.7
11
40.95
21
-68.7
0
LINE
8
0
10
40.95
20
-68.7
11
40.95
21
-83.7
0
LINE
8
0
10
59.95
20
-83.7
11
74.95
21
-83.7
0
LINE
8
0
10
74.95
20
-83.7
11
74.95
21
-68.7
0
LINE
8
0
10
74.95
20
-68.7
11
59.95
21
-68.7
0
LINE
8
0
10
59.95
20
-68.7
11
59.95
21
-83.7
0
LINE
8
0
10
131.675
20
-83.7
11
146.675
21
-83.7
0
LINE
8
0
10
146.675
20
-83.7
11
146.675
21
-68.7
0
LINE
8
0
10
146.675
20
-68.7
11
131.675
21
-68.7
0
LINE
8
0
10
131.675
20
-68.7
11
131.675
21
-83.7
0
LINE
8
0
10
203.4
20
-83.7
11
218.4
21
-83.7
0
LINE
8
0
10
218.4
20
-83.7
11
218.4
21
-68.7
0
LINE
8
0
10
218.4
20
-68.7
11
203.4
21
-68.7
0
LINE
8
0
10
203.4
20
-68.7
11
203.4
21
-83.7
0
LINE
8
0
10
227.625
20
-83.7
11
242.625
21
-83.7
0
LINE
8
0
10
242.625
20
-83.7
11
242.625
21
-68.7
0
LINE
8
0
10
242.625
20
-68.7
11
227.625
21
-68.7
0
LINE
8
0
10
227.625
20
-68.7
11
227.625
21
-83.7
0
LINE
8
0
10
260.4
20
-83.7
11
275.4
21
-83.7
0
LINE
8
0
10
275.4
20
-83.7
11
275.4
21
-68.7
0
LINE
8
0
10
275.4
20
-68.7
11
260.4
21
-68.7
0
LINE
8
0
10
260.4
20
-68.7
11
260.4
21
-83.7
0
LINE
8
0
10
279.4
20
-83.7
11
294.4
21
-83.7
0
LINE
8
0
10
294.4
20
-83.7
11
294.4
21
-68.7
0
LINE
8
0
10
294.4
20
-68.7
11
279.4
21
-68.7
0
LINE
8
0
10
279.4
20
-68.7
11
279.4
21
-83.7
0
LINE
8
0
10
298.4
20
-83.7
11
313.4
21
-83.7
0
LINE
8
0
10
313.4
20
-83.7
11
313.4
21
-68.7
0
LINE
8
0
10
313.4
20
-68.7
11
298.4
21
-68.7
0
LINE
8
0
10
298.4
20
-68.7
11
298.4
21
-83.7
0
ENDSEC
0
EOF