0
SECTION
2
HEADER
9
$INSUNITS
70
4
0
ENDSEC
0
SECTION
2
TABLES
0
TABLE
2
LTYPE
0
LTYPE
72
65
70
64
2
CONTINUOUS
3
______
73
0
40
0
0
ENDTAB
0
TABLE
2
LAYER
0
ENDTAB
0
ENDSEC
0
SECTION
2
ENTITIES
0
LINE
8
0
10
-12.5
20
-88.2
11
-12.5
21
31.05
0
LINE
8
0
10
-12.5
20
31.05
11
318.4
21
31.05
0
LINE
8
0
10
318.4
20
31.05
11
318.4
21
-88.2
0
LINE
8
0
10
318.4
20
-88.2
11
-12.5
21
-88.2
0
LINE
8
0
10
-7
20
-7
11
7
21
-7
0
LINE
8
0
10
7
20
-7
11
7
21
7
0
LINE
8
0
10
7
20
7
11
-7
21
7
0
LINE
8
0
10
-7
20
7
11
-7
21
-7
0
LINE
8
0
10
12.95
20
-7
11
26.95
21
-7
0
LINE
8
0
10
26.95
20
-7
11
26.95
21
7
0
LINE
8
0
10
26.95
20
7
11
12.95
21
7
0
LINE
8
0
10
12.95
20
7
11
12.95
21
-7
0
LINE
8
0
10
31.95
20
-7
11
45.95
21
-7
0
LINE
8
0
10
45.95
20
-7
11
45.95
21
7
0
LINE
8
0
10
45.95
20
7
11
31.95
21
7
0
LINE
8
0
10
31.95
20
7
11
31.95
21
-7
0
LINE
8
0
10
50.95
20
-7
11
64.95
21
-7
0
LINE
8
0
10
64.95
20
-7
11
64.95
21
7
0
LINE
8
0
10
64.95
20
7
11
50.95
21
7
0
LINE
8
0
10
50.95
20
7
11
50.95
21
-7
0
LINE
8
0
10
69.95
20
-7
11
83.95
21
-7
0
LINE
8
0
10
83.95
20
-7
11
83.95
21
7
0
LINE
8
0
10
83.95
20
7
11
69.95
21
7
0
LINE
8
0
10
69.95
20
7
11
69.95
21
-7
0
LINE
8
0
10
88.95
20
-7
11
102.95
21
-7
0
LINE
8
0
10
102.95
20
-7
11
102.95
21
7
0
LINE
8
0
10
102.95
20
7
11
88.95
21
7
0
LINE
8
0
10
88.95
20
7
11
88.95
21
-7
0
LINE
8
0
10
107.95
20
-7
11
121.95
21
-7
0
LINE
8
0
10
121.95
20
-7
11
121.95
21
7
0
LINE
8
0
10
121.95
20
7
11
107.95
21
7
0
LINE
8
0
10
107.95
20
7
11
107.95
21
-7
0
LINE
8
0
10
126.95
20
-7
11
140.95
21
-7
0
LINE
8
0
10
140.95
20
-7
11
140.95
21
7
0
LINE
8
0
10
140.95
20
7
11
126.95
21
7
0
LINE
8
0
10
126.95
20
7
11
126.95
21
-7
0
LINE
8
0
10
145.95
20
-7
11
159.95
21
-7
0
LINE
8
0
10
159.95
20
-7
11
159.95
21
7
0
LINE
8
0
10
159.95
20
7
11
145.95
21
7
0
LINE
8
0
10
145.95
20
7
11
145.95
21
-7
0
LINE
8
0
10
164.95
20
-7
11
178.95
21
-7
0
LINE
8
0
10
178.95
20
-7
11
178.95
21
7
0
LINE
8
0
10
178.95
20
7
11
164.95
21
7
0
LINE
8
0
10
164.95
20
7
11
164.95
21
-7
0
LINE
8
0
10
183.95
20
-7
11
197.95
21
-7
0
LINE
8
0
10
197.95
20
-7
11
197.95
21
7
0
LINE
8
0
10
197.95
20
7
11
183.95
21
7
0
LINE
8
0
10
183.95
20
7
11
183.95
21
-7
0
LINE
8
0
10
202.95
20
-7
11
216.95
21
-7
0
LINE
8
0
10
216.95
20
-7
11
216.95
21
7
0
LINE
8
0
10
216.95
20
7
11
202.95
21
7
0
LINE
8
0
10
202.95
20
7
11
202.95
21
-7
0
LINE
8
0
10
221.95
20
-7
11
235.95
21
-7
0
LINE
8
0
10
235.95
20
-7
11
235.95
21
7
0
LINE
8
0
10
235.95
20
7
11
221.95
21
7
0
LINE
8
0
10
221.95
20
7
11
221.95
21
-7
0
LINE
8
0
10
250.925
20
-7
11
264.925
21
-7
0
LINE
8
0
10
264.925
20
-7
11
264.925
21
7
0
LINE
8
0
10
264.925
20
7
11
250.925
21
7
0
LINE
8
0
10
250.925
20
7
11
250.925
21
-7
0
LINE
8
0
10
-7
20
12.05
11
7
21
12.05
0
LINE
8
0
10
7
20
12.05
11
7
21
26.05
0
LINE
8
0
10
7
20
26.05
11
-7
21
26.05
0
LINE
8
0
10
-7
20
26.05
11
-7
21
12.05
0
LINE
8
0
10
17.225
20
12.05
11
31.225
21
12.05
0
LINE
8
0
10
31.225
20
12.05
11
31.225
21
26.05
0
LINE
8
0
10
31.225
20
26.05
11
17.225
21
26.05
0
LINE
8
0
10
17.225
20
26.05
11
17.225
21
12.05
0
LINE
8
0
10
36.225
20
12.05
11
50.225
21
12.05
0
LINE
8
0
10
50.225
20
12.05
11
50.225
21
26.05
0
LINE
8
0
10
50.225
20
26.05
11
36.225
21
26.05
0
LINE
8
0
10
36.225
20
26.05
11
36.225
21
12.05
0
LINE
8
0
10
55.225
20
12.05
11
69.225
21
12.05
0
LINE
8
0
10
69.225
20
12.05
11
69.225
21
26.05
0
LINE
8
0
10
69.225
20
26.05
11
55.225
21
26.05
0
LINE
8
0
10
55.225
20
26.05
11
55.225
21
12.05
0
LINE
8
0
10
74.225
20
12.05
11
88.225
21
12.05
0
LINE
8
0
10
88.225
20
12.05
11
88.225
21
26.05
0
LINE
8
0
10
88.225
20
26.05
11
74.225
21
26.05
0
LINE
8
0
10
74.225
20
26.05
11
74.225
21
12.05
0
LINE
8
0
10
98.45
20
12.05
11
112.45
21
12.05
0
LINE
8
0
10
112.45
20
12.05
11
112.45
21
26.05
0
LINE
8
0
10
112.45
20
26.05
11
98.45
21
26.05
0
LINE
8
0
10
98.45
20
26.05
11
98.45
21
12.05
0
LINE
8
0
10
117.45
20
12.05
11
131.45
21
12.05
0
LINE
8
0
10
131.45
20
12.05
11
131.45
21
26.05
0
LINE
8
0
10
131.45
20
26.05
11
117.45
21
26.05
0
LINE
8
0
10
117.45
20
26.05
11
117.45
21
12.05
0
LINE
8
0
10
136.45
20
12.05
11
150.45
21
12.05
0
LINE
8
0
10
150.45
20
12.05
11
150.45
21
26.05
0
LINE
8
0
10
150.45
20
26.05
11
136.45
21
26.05
0
LINE
8
0
10
136.45
20
26.05
11
136.45
21
12.05
0
LINE
8
0
10
155.45
20
12.05
11
169.45
21
12.05
0
LINE
8
0
10
169.45
20
12.05
11
169.45
21
26.05
0
LINE
8
0
10
169.45
20
26.05
11
155.45
21
26.05
0
LINE
8
0
10
155.45
20
26.05
11
155.45
21
12.05
0
LINE
8
0
10
179.675
20
12.05
11
193.675
21
12.05
0
LINE
8
0
10
193.675
20
12.05
11
193.675
21
26.05
0
LINE
8
0
10
193.675
20
26.05
11
179.675
21
26.05
0
LINE
8
0
10
179.675
20
26.05
11
179.675
21
12.05
0
LINE
8
0
10
198.675
20
12.05
11
212.675
21
12.05
0
LINE
8
0
10
212.675
20
12.05
11
212.675
21
26.05
0
LINE
8
0
10
212.675
20
26.05
11
198.675
21
26.05
0
LINE
8
0
10
198.675
20
26.05
11
198.675
21
12.05
0
LINE
8
0
10
217.675
20
12.05
11
231.675
21
12.05
0
LINE
8
0
10
231.675
20
12.05
11
231.675
21
26.05
0
LINE
8
0
10
231.675
20
26.05
11
217.675
21
26.05
0
LINE
8
0
10
217.675
20
26.05
11
217.675
21
12.05
0
LINE
8
0
10
236.675
20
12.05
11
250.675
21
12.05
0
LINE
8
0
10
250.675
20
12.05
11
250.675
21
26.05
0
LINE
8
0
10
250.675
20
26.05
11
236.675
21
26.05
0
LINE
8
0
10
236.675
20
26.05
11
236.675
21
12.05
0
LINE
8
0
10
260.9
20
12.05
11
274.9
21
12.05
0
LINE
8
0
10
274.9
20
12.05
11
274.9
21
26.05
0
LINE
8
0
10
274.9
20
26.05
11
260.9
21
26.05
0
LINE
8
0
10
260.9
20
26.05
11
260.9
21
12.05
0
LINE
8
0
10
-1.775
20
-26.05
11
12.225
21
-26.05
0
LINE
8
0
10
12.225
20
-26.05
11
12.225
21
-12.05
0
LINE
8
0
10
12.225
20
-12.05
11
-1.775
21
-12.05
0
LINE
8
0
10
-1.775
20
-12.05
11
-1.775
21
-26.05
0
LINE
8
0
10
22.45
20
-26.05
11
36.45
21
-26.05
0
LINE
8
0
10
36.45
20
-26.05
11
36.45
21
-12.05
0
LINE
8
0
10
36.45
20
-12.05
11
22.45
21
-12.05
0
LINE
8
0
10
22.45
20
-12.05
11
22.45
21
-26.05
0
LINE
8
0
10
41.45
20
-26.05
11
55.45
21
-26.05
0
LINE
8
0
10
55.45
20
-26.05
11
55.45
21
-12.05
0
LINE
8
0
10
55.45
20
-12.05
11
41.45
21
-12.05
0
LINE
8
0
10
41.45
20
-12.05
11
41.45
21
-26.05
0
LINE
8
0
10
60.45
20
-26.05
11
74.45
21
-26.05
0
LINE
8
0
10
74.45
20
-26.05
11
74.45
21
-12.05
0
LINE
8
0
10
74.45
20
-12.05
11
60.45
21
-12.05
0
LINE
8
0
10
60.45
20
-12.05
11
60.45
21
-26.05
0
LINE
8
0
10
79.45
20
-26.05
11
93.45
21
-26.05
0
LINE
8
0
10
93.45
20
-26.05
11
93.45
21
-12.05
0
LINE
8
0
10
93.45
20
-12.05
11
79.45
21
-12.05
0
LINE
8
0
10
79.45
20
-12.05
11
79.45
21
-26.05
0
LINE
8
0
10
98.45
20
-26.05
11
112.45
21
-26.05
0
LINE
8
0
10
112.45
20
-26.05
11
112.45
21
-12.05
0
LINE
8
0
10
112.45
20
-12.05
11
98.45
21
-12.05
0
LINE
8
0
10
98.45
20
-12.05
11
98.45
21
-26.05
0
LINE
8
0
10
117.45
20
-26.05
11
131.45
21
-26.05
0
LINE
8
0
10
131.45
20
-26.05
11
131.45
21
-12.05
0
LINE
8
0
10
131.45
20
-12.05
11
117.45
21
-12.05
0
LINE
8
0
10
117.45
20
-12.05
11
117.45
21
-26.05
0
LINE
8
0
10
136.45
20
-26.05
11
150.45
21
-26.05
0
LINE
8
0
10
150.45
20
-26.05
11
150.45
21
-12.05
0
LINE
8
0
10
150.45
20
-12.05
11
136.45
21
-12.05
0
LINE
8
0
10
136.45
20
-12.05
11
136.45
21
-26.05
0
LINE
8
0
10
155.45
20
-26.05
11
169.45
21
-26.05
0
LINE
8
0
10
169.45
20
-26.05
11
169.45
21
-12.05
0
LINE
8
0
10
169.45
20
-12.05
11
155.45
21
-12.05
0
LINE
8
0
10
155.45
20
-12.05
11
155.45
21
-26.05
0
LINE
8
0
10
174.45
20
-26.05
11
188.45
21
-26.05
0
LINE
8
0
10
188.45
20
-26.05
11
188.45
21
-12.05
0
LINE
8
0
10
188.45
20
-12.05
11
174.45
21
-12.05
0
LINE
8
0
10
174.45
20
-12.05
11
174.45
21
-26.05
0
LINE
8
0
10
193.45
20
-26.05
11
207.45
21
-26.05
0
LINE
8
0
10
207.45
20
-26.05
11
207.45
21
-12.05
0
LINE
8
0
10
207.45
20
-12.05
11
193.45
21
-12.05
0
LINE
8
0
10
193.45
20
-12.05
11
193.45
21
-26.05
0
LINE
8
0
10
212.45
20
-26.05
11
226.45
21
-26.05
0
LINE
8
0
10
226.45
20
-26.05
11
226.45
21
-12.05
0
LINE
8
0
10
226.45
20
-12.05
11
212.45
21
-12.05
0
LINE
8
0
10
212.45
20
-12.05
11
212.45
21
-26.05
0
LINE
8
0
10
231.45
20
-26.05
11
245.45
21
-26.05
0
LINE
8
0
10
245.45
20
-26.05
11
245.45
21
-12.05
0
LINE
8
0
10
245.45
20
-12.05
11
231.45
21
-12.05
0
LINE
8
0
10
231.45
20
-12.05
11
231.45
21
-26.05
0
LINE
8
0
10
255.675
20
-26.05
11
269.675
21
-26.05
0
LINE
8
0
10
269.675
20
-26.05
11
269.675
21
-12.05
0
LINE
8
0
10
269.675
20
-12.05
11
255.675
21
-12.05
0
LINE
8
0
10
255.675
20
-12.05
11
255.675
21
-26.05
0
LINE
8
0
10
0.6
20
-45.1
11
14.6
21
-45.1
0
LINE
8
0
10
14.6
20
-45.1
11
14.6
21
-31.1
0
LINE
8
0
10
14.6
20
-31.1
11
0.6
21
-31.1
0
LINE
8
0
10
0.6
20
-31.1
11
0.6
21
-45.1
0
LINE
8
0
10
27.2
20
-45.1
11
41.2
21
-45.1
0
LINE
8
0
10
41.2
20
-45.1
11
41.2
21
-31.1
0
LINE
8
0
10
41.2
20
-31.1
11
27.2
21
-31.1
0
LINE
8
0
10
27.2
20
-31.1
11
27.2
21
-45.1
0
LINE
8
0
10
46.2
20
-45.1
11
60.2
21
-45.1
0
LINE
8
0
10
60.2
20
-45.1
11
60.2
21
-31.1
0
LINE
8
0
10
60.2
20
-31.1
11
46.2
21
-31.1
0
LINE
8
0
10
46.2
20
-31.1
11
46.2
21
-45.1
0
LINE
8
0
10
65.2
20
-45.1
11
79.2
21
-45.1
0
LINE
8
0
10
79.2
20
-45.1
11
79.2
21
-31.1
0
LINE
8
0
10
79.2
20
-31.1
11
65.2
21
-31.1
0
LINE
8
0
10
65.2
20
-31.1
11
65.2
21
-45.1
0
LINE
8
0
10
84.2
20
-45.1
11
98.2
21
-45.1
0
LINE
8
0
10
98.2
20
-45.1
11
98.2
21
-31.1
0
LINE
8
0
10
98.2
20
-31.1
11
84.2
21
-31.1
0
LINE
8
0
10
84.2
20
-31.1
11
84.2
21
-45.1
0
LINE
8
0
10
103.2
20
-45.1
11
117.2
21
-45.1
0
LINE
8
0
10
117.2
20
-45.1
11
117.2
21
-31.1
0
LINE
8
0
10
117.2
20
-31.1
11
103.2
21
-31.1
0
LINE
8
0
10
103.2
20
-31.1
11
103.2
21
-45.1
0
LINE
8
0
10
122.2
20
-45.1
11
136.2
21
-45.1
0
LINE
8
0
10
136.2
20
-45.1
11
136.2
21
-31.1
0
LINE
8
0
10
136.2
20
-31.1
11
122.2
21
-31.1
0
LINE
8
0
10
122.2
20
-31.1
11
122.2
21
-45.1
0
LINE
8
0
10
141.2
20
-45.1
11
155.2
21
-45.1
0
LINE
8
0
10
155.2
20
-45.1
11
155.2
21
-31.1
0
LINE
8
0
10
155.2
20
-31.1
11
141.2
21
-31.1
0
LINE
8
0
10
141.2
20
-31.1
11
141.2
21
-45.1
0
LINE
8
0
10
160.2
20
-45.1
11
174.2
21
-45.1
0
LINE
8
0
10
174.2
20
-45.1
11
174.2
21
-31.1
0
LINE
8
0
10
174.2
20
-31.1
11
160.2
21
-31.1
0
LINE
8
0
10
160.2
20
-31.1
11
160.2
21
-45.1
0
LINE
8
0
10
179.2
20
-45.1
11
193.2
21
-45.1
0
LINE
8
0
10
193.2
20
-45.1
11
193.2
21
-31.1
0
LINE
8
0
10
193.2
20
-31.1
11
179.2
21
-31.1
0
LINE
8
0
10
179.2
20
-31.1
11
179.2
21
-45.1
0
LINE
8
0
10
198.2
20
-45.1
11
212.2
21
-45.1
0
LINE
8
0
10
212.2
20
-45.1
11
212.2
21
-31.1
0
LINE
8
0
10
212.2
20
-31.1
11
198.2
21
-31.1
0
LINE
8
0
10
198.2
20
-31.1
11
198.2
21
-45.1
0
LINE
8
0
10
217.2
20
-45.1
11
231.2
21
-45.1
0
LINE
8
0
10
231.2
20
-45.1
11
231.2
21
-31.1
0
LINE
8
0
10
231.2
20
-31.1
11
217.2
21
-31.1
0
LINE
8
0
10
217.2
20
-31.1
11
217.2
21
-45.1
0
LINE
8
0
10
248.55
20
-45.1
11
262.55
21
-45.1
0
LINE
8
0
10
262.55
20
-45.1
11
262.55
21
-31.1
0
LINE
8
0
10
262.55
20
-31.1
11
248.55
21
-31.1
0
LINE
8
0
10
248.55
20
-31.1
11
248.55
21
-45.1
0
LINE
8
0
10
279.9
20
-45.1
11
293.9
21
-45.1
0
LINE
8
0
10
293.9
20
-45.1
11
293.9
21
-31.1
0
LINE
8
0
10
293.9
20
-31.1
11
279.9
21
-31.1
0
LINE
8
0
10
279.9
20
-31.1
11
279.9
21
-45.1
0
LINE
8
0
10
298.9
20
-45.1
11
312.9
21
-45.1
0
LINE
8
0
10
312.9
20
-45.1
11
312.9
21
-31.1
0
LINE
8
0
10
312.9
20
-31.1
11
298.9
21
-31.1
0
LINE
8
0
10
298.9
20
-31.1
11
298.9
21
-45.1
0
LINE
8
0
10
5.35
20
-64.15
11
19.35
21
-64.15
0
LINE
8
0
10
19.35
20
-64.15
11
19.35
21
-50.15
0
LINE
8
0
10
19.35
20
-50.15
11
5.35
21
-50.15
0
LINE
8
0
10
5.35
20
-50.15
11
5.35
21
-64.15
0
LINE
8
0
10
36.7
20
-64.15
11
50.7
21
-64.15
0
LINE
8
0
10
50.7
20
-64.15
11
50.7
21
-50.15
0
LINE
8
0
10
50.7
20
-50.15
11
36.7
21
-50.15
0
LINE
8
0
10
36.7
20
-50.15
11
36.7
21
-64.15
0
LINE
8
0
10
55.7
20
-64.15
11
69.7
21
-64.15
0
LINE
8
0
10
69.7
20
-64.15
11
69.7
21
-50.15
0
LINE
8
0
10
69.7
20
-50.15
11
55.7
21
-50.15
0
LINE
8
0
10
55.7
20
-50.15
11
55.7
21
-64.15
0
LINE
8
0
10
74.7
20
-64.15
11
88.7
21
-64.15
0
LINE
8
0
10
88.7
20
-64.15
11
88.7
21
-50.15
0
LINE
8
0
10
88.7
20
-50.15
11
74.7
21
-50.15
0
LINE
8
0
10
74.7
20
-50.15
11
74.7
21
-64.15
0
LINE
8
0
10
93.7
20
-64.15
11
107.7
21
-64.15
0
LINE
8
0
10
107.7
20
-64.15
11
107.7
21
-50.15
0
LINE
8
0
10
107.7
20
-50.15
11
93.7
21
-50.15
0
LINE
8
0
10
93.7
20
-50.15
11
93.7
21
-64.15
0
LINE
8
0
10
112.7
20
-64.15
11
126.7
21
-64.15
0
LINE
8
0
10
126.7
20
-64.15
11
126.7
21
-50.15
0
LINE
8
0
10
126.7
20
-50.15
11
112.7
21
-50.15
0
LINE
8
0
10
112.7
20
-50.15
11
112.7
21
-64.15
0
LINE
8
0
10
131.7
20
-64.15
11
145.7
21
-64.15
0
LINE
8
0
10
145.7
20
-64.15
11
145.7
21
-50.15
0
LINE
8
0
10
145.7
20
-50.15
11
131.7
21
-50.15
0
LINE
8
0
10
131.7
20
-50.15
11
131.7
21
-64.15
0
LINE
8
0
10
150.7
20
-64.15
11
164.7
21
-64.15
0
LINE
8
0
10
164.7
20
-64.15
11
164.7
21
-50.15
0
LINE
8
0
10
164.7
20
-50.15
11
150.7
21
-50.15
0
LINE
8
0
10
150.7
20
-50.15
11
150.7
21
-64.15
0
LINE
8
0
10
169.7
20
-64.15
11
183.7
21
-64.15
0
LINE
8
0
10
183.7
20
-64.15
11
183.7
21
-50.15
0
LINE
8
0
10
183.7
20
-50.15
11
169.7
21
-50.15
0
LINE
8
0
10
169.7
20
-50.15
11
169.7
21
-64.15
0
LINE
8
0
10
188.7
20
-64.15
11
202.7
21
-64.15
0
LINE
8
0
10
202.7
20
-64.15
11
202.7
21
-50.15
0
LINE
8
0
10
202.7
20
-50.15
11
188.7
21
-50.15
0
LINE
8
0
10
188.7
20
-50.15
11
188.7
21
-64.15
0
LINE
8
0
10
207.7
20
-64.15
11
221.7
21
-64.15
0
LINE
8
0
10
221.7
20
-64.15
11
221.7
21
-50.15
0
LINE
8
0
10
221.7
20
-50.15
11
207.7
21
-50.15
0
LINE
8
0
10
207.7
20
-50.15
11
207.7
21
-64.15
0
LINE
8
0
10
243.8
20
-64.15
11
257.8
21
-64.15
0
LINE
8
0
10
257.8
20
-64.15
11
257.8
21
-50.15
0
LINE
8
0
10
257.8
20
-50.15
11
243.8
21
-50.15
0
LINE
8
0
10
243.8
20
-50.15
11
243.8
21
-64.15
0
LINE
8
0
10
279.9
20
-64.15
11
293.9
21
-64.15
0
LINE
8
0
10
293.9
20
-64.15
11
293.9
21
-50.15
0
LINE
8
0
10
293.9
20
-50.15
11
279.9
21
-50.15
0
LINE
8
0
10
279.9
20
-50.15
11
279.9
21
-64.15
0
LINE
8
0
10
-1.775
20
-83.2
11
12.225
21
-83.2
0
LINE
8
0
10
12.225
20
-83.2
11
12.225
21
-69.2
0
LINE
8
0
10
12.225
20
-69.2
11
-1.775
21
-69.2
0
LINE
8
0
10
-1.775
20
-69.2
11
-1.775
21
-83.2
0
LINE
8
0
10
22.45
20
-83.2
11
36.45
21
-83.2
0
LINE
8
0
10
36.45
20
-83.2
11
36.45
21
-69.2
0
LINE
8
0
10
36.45
20
-69.2
11
22.45
21
-69.2
0
LINE
8
0
10
22.45
20
-69.2
11
22.45
21
-83.2
0
LINE
8
0
10
41.45
20
-83.2
11
55.45
21
-83.2
0
LINE
8
0
10
55.45
20
-83.2
11
55.45
21
-69.2
0
LINE
8
0
10
55.45
20
-69.2
11
41.45
21
-69.2
0
LINE
8
0
10
41.45
20
-69.2
11
41.45
21
-83.2
0
LINE
8
0
10
60.45
20
-83.2
11
74.45
21
-83.2
0
LINE
8
0
10
74.45
20
-83.2
11
74.45
21
-69.2
0
LINE
8
0
10
74.45
20
-69.2
11
60.45
21
-69.2
0
LINE
8
0
10
60.45
20
-69.2
11
60.45
21
-83.2
0
LINE
8
0
10
132.175
20
-83.2
11
146.175
21
-83.2
0
LINE
8
0
10
146.175
20
-83.2
11
146.175
21
-69.2
0
LINE
8
0
10
146.175
20
-69.2
11
132.175
21
-69.2
0
LINE
8
0
10
132.175
20
-69.2
11
132.175
21
-83.2
0
LINE
8
0
10
203.9
20
-83.2
11
217.9
21
-83.2
0
LINE
8
0
10
217.9
20
-83.2
11
217.9
21
-69.2
0
LINE
8
0
10
217.9
20
-69.2
11
203.9
21
-69.2
0
LINE
8
0
10
203.9
20
-69.2
11
203.9
21
-83.2
0
LINE
8
0
10
228.125
20
-83.2
11
242.125
21
-83.2
0
LINE
8
0
10
242.125
20
-83.2
11
242.125
21
-69.2
0
LINE
8
0
10
242.125
20
-69.2
11
228.125
21
-69.2
0
LINE
8
0
10
228.125
20
-69.2
11
228.125
21
-83.2
0
LINE
8
0
10
260.9
20
-83.2
11
274.9
21
-83.2
0
LINE
8
0
10
274.9
20
-83.2
11
274.9
21
-69.2
0
LINE
8
0
10
274.9
20
-69.2
11
260.9
21
-69.2
0
LINE
8
0
10
260.9
20
-69.2
11
260.9
21
-83.2
0
LINE
8
0
10
279.9
20
-83.2
11
293.9
21
-83.2
0
LINE
8
0
10
293.9
20
-83.2
11
293.9
21
-69.2
0
LINE
8
0
10
293.9
20
-69.2
11
279.9
21
-69.2
0
LINE
8
0
10
279.9
20
-69.2
11
279.9
21
-83.2
0
LINE
8
0
10
298.9
20
-83.2
11
312.9
21
-83.2
0
LINE
8
0
10
312.9
20
-83.2
11
312.9
21
-69.2
0
LINE
8
0
10
312.9
20
-69.2
11
298.9
21
-69.2
0
LINE
8
0
10
298.9
20
-69.2
11
298.9
21
-83.2
0
ENDSEC
0
EOF